<?xml version="1.0" standalone="no"?>
<!DOCTYPE svg PUBLIC "-//W3C//DTD SVG 20010904//EN"
 "http://www.w3.org/TR/2001/REC-SVG-20010904/DTD/svg10.dtd">
<svg version="1.0" xmlns="http://www.w3.org/2000/svg"
 width="1024.000000pt" height="1024.000000pt" viewBox="0 0 1024.000000 1024.000000"
 preserveAspectRatio="xMidYMid meet">
<metadata>
Created by potrace 1.16, written by Peter Selinger 2001-2019
</metadata>
<g transform="translate(0.000000,1024.000000) scale(0.100000,-0.100000)"
fill="#000000" stroke="none">
<path d="M0 5120 l0 -5120 5120 0 5120 0 0 5120 0 5120 -5120 0 -5120 0 0
-5120z m9150 2360 c-22 -194 -76 -409 -131 -525 -66 -141 -152 -225 -359 -354
-190 -118 -197 -130 -40 -67 119 47 227 103 283 147 20 17 37 25 37 19 0 -28
-144 -308 -210 -406 -82 -124 -148 -196 -237 -260 -104 -75 -282 -134 -450
-150 -80 -7 -94 -18 -35 -28 122 -20 304 10 433 72 65 31 65 32 -10 -63 -124
-158 -260 -278 -372 -329 -71 -33 -188 -62 -324 -80 -144 -20 -181 -32 -453
-152 -40 -18 -39 -16 27 71 200 264 371 453 777 855 338 334 675 692 674 715
-1 5 -9 0 -18 -12 -21 -28 -430 -424 -652 -632 -240 -224 -499 -489 -588 -601
-42 -54 -120 -159 -172 -235 -239 -344 -444 -586 -657 -775 -72 -64 -87 -100
-54 -133 20 -21 34 -22 219 -28 150 -4 169 -5 81 -7 -64 -1 -157 -5 -207 -8
-92 -7 -92 -7 -112 -42 l-21 -35 23 -25 c22 -24 9 -22 -22 4 -12 10 -21 10
-45 0 -26 -11 -31 -20 -41 -72 l-12 -59 -1 45 c-2 71 -9 87 -42 92 -18 3 -34
-1 -41 -9 -6 -8 -21 -19 -32 -25 -16 -9 -15 -5 7 22 25 30 26 34 12 50 -8 9
-15 22 -15 28 0 22 -36 12 -105 -29 -211 -128 -650 -305 -1050 -424 -439 -131
-785 -205 -1195 -256 -210 -26 -718 -37 -896 -20 -543 54 -928 190 -1105 389
-82 93 -101 189 -55 288 25 54 100 126 169 163 23 12 33 15 22 7 -11 -9 -39
-31 -61 -49 -101 -78 -137 -184 -93 -272 29 -59 114 -137 188 -174 280 -142
804 -221 1361 -207 897 22 1831 222 2550 544 144 65 142 68 -30 73 -98 2 -93
3 60 9 91 4 174 10 185 13 11 4 31 23 43 42 l24 34 -22 31 c-12 16 -26 30 -32
30 -6 0 -9 3 -5 6 3 3 24 -8 46 -26 l40 -32 35 22 c35 21 36 24 38 83 2 60 2
60 5 12 6 -79 8 -81 56 -46 126 93 302 278 523 551 60 74 151 179 203 233 52
53 92 100 88 103 -3 3 -45 -32 -93 -78 -48 -45 -82 -73 -75 -60 6 12 9 22 6
22 -3 0 -11 -12 -18 -28 -13 -30 -89 -141 -97 -142 -3 0 -4 89 -4 198 2 213
10 266 60 365 28 54 103 177 109 177 2 0 -1 -17 -7 -37 -21 -72 -10 -270 20
-353 11 -31 30 67 31 156 2 264 145 496 422 685 l56 38 -39 -79 c-46 -92 -72
-217 -62 -297 3 -29 10 -53 14 -53 4 0 15 39 24 87 23 115 48 189 90 260 85
142 168 206 491 375 110 58 233 126 273 151 40 26 79 47 87 47 9 0 18 6 21 14
3 7 41 42 86 77 44 34 109 95 145 133 87 95 193 257 229 349 l29 76 3 -47 c2
-26 -2 -90 -8 -142z m-6421 -714 c62 -64 101 -111 101 -124 0 -13 -23 -38 -67
-73 -38 -29 -94 -77 -125 -106 -31 -29 -63 -53 -72 -53 -8 0 -29 20 -45 44
-17 24 -66 74 -111 111 -44 38 -80 71 -80 75 0 11 69 81 145 146 92 79 113 93
135 87 10 -3 63 -51 119 -107z m519 -23 c123 -127 125 -135 42 -201 -30 -24
-83 -68 -117 -98 -34 -30 -70 -54 -80 -54 -10 0 -42 27 -72 60 -29 34 -77 79
-107 102 -31 23 -54 48 -54 59 0 11 36 48 88 90 48 40 106 90 129 111 24 21
48 38 55 38 7 0 59 -48 116 -107z m170 -420 c-50 -80 -83 -166 -123 -319 -71
-265 -92 -443 -59 -505 30 -59 73 -69 307 -69 189 0 211 2 247 20 106 54 90
198 -35 329 -34 36 -53 64 -50 73 9 23 263 188 290 188 18 0 32 -11 50 -39
109 -164 94 -409 -36 -628 -48 -80 -168 -204 -225 -233 l-49 -25 -335 0 c-331
0 -336 0 -382 23 -60 30 -86 66 -100 140 -10 56 -6 111 29 362 l6 45 -64 -80
c-216 -270 -435 -441 -609 -477 -158 -32 -299 49 -337 194 -17 66 -16 106 2
192 64 302 382 570 790 666 44 11 141 26 215 35 182 21 290 55 425 133 38 23
71 39 74 37 2 -3 -12 -31 -31 -62z m3227 44 c102 -29 215 -96 215 -129 0 -25
-208 -238 -233 -238 -8 0 -51 22 -94 50 -107 68 -207 102 -304 102 -144 1
-248 -52 -305 -155 -24 -43 -29 -64 -29 -122 0 -59 5 -79 30 -124 39 -70 111
-133 210 -182 233 -115 528 -126 808 -30 43 15 57 17 57 7 0 -13 -76 -126
-176 -262 l-59 -79 -120 -3 c-140 -4 -229 -15 -335 -42 -97 -25 -265 -83 -348
-121 -104 -47 -292 -162 -400 -246 -357 -274 -623 -432 -937 -556 -216 -85
-485 -159 -697 -191 -51 -8 -127 -21 -168 -28 -52 -9 -176 -13 -405 -13 -297
0 -342 2 -455 22 -373 67 -568 167 -610 314 -16 54 4 129 46 175 l35 39 -27
-43 c-56 -88 -40 -186 40 -244 238 -174 793 -254 1360 -197 398 40 835 210
1135 442 279 215 448 435 576 747 l34 85 108 -3 c98 -3 227 9 241 23 3 3 -5
13 -19 22 -51 35 -113 108 -141 170 -95 202 -1 453 241 645 105 84 225 140
376 177 54 14 288 6 350 -12z m-1572 -199 c62 -19 148 -104 190 -190 52 -107
71 -214 64 -368 -11 -250 -117 -501 -298 -709 -163 -187 -381 -301 -571 -301
-160 1 -359 97 -478 233 -22 25 -40 48 -40 51 0 4 18 -3 40 -14 123 -63 231
-84 388 -78 97 5 134 11 216 38 233 78 415 267 446 460 11 72 14 210 4 210 -4
0 -42 -33 -84 -74 -91 -87 -151 -124 -229 -142 -78 -19 -128 -17 -206 7 -212
65 -246 292 -79 525 174 244 463 404 637 352z m2852 -778 c-37 -36 -175 -108
-272 -139 -78 -27 -121 -34 -232 -41 -135 -8 -136 -8 -224 -55 l-89 -46 49 62
c69 89 99 119 117 119 9 0 50 16 91 35 119 54 173 65 341 64 82 0 165 4 184
10 52 14 56 13 35 -9z m-4266 -489 c113 -104 116 -119 39 -182 -29 -24 -79
-67 -110 -96 -31 -29 -61 -53 -66 -53 -6 0 -24 17 -41 38 -16 21 -62 65 -100
97 -39 33 -71 67 -71 76 0 10 19 32 43 51 23 18 75 63 115 101 50 48 76 66 86
60 8 -4 55 -46 105 -92z"/>
<path d="M2825 6035 c-225 -47 -399 -128 -510 -240 -102 -102 -138 -206 -97
-284 24 -49 60 -71 124 -78 131 -13 286 71 468 255 148 151 168 181 190 287
l17 85 -41 -1 c-22 0 -90 -11 -151 -24z"/>
<path d="M4672 5873 c-47 -23 -82 -78 -82 -129 0 -91 97 -164 229 -172 78 -4
186 11 197 29 10 17 -62 156 -108 205 -72 79 -161 104 -236 67z"/>
</g>
</svg>
